<svg width="512" height="512" viewBox="0 0 512 512" fill="none" xmlns="http://www.w3.org/2000/svg">
<g clip-path="url(#clip0_2053_22)">
<g filter="url(#filter0_f_2053_22)">
<path d="M10.3021 383.904C-3.43402 376.22 -3.43403 363.764 10.3021 356.08L229.013 233.747C242.749 226.064 265.019 226.064 278.755 233.747L497.466 356.08C511.202 363.764 511.202 376.22 497.466 383.904L278.755 506.237C265.019 513.92 242.749 513.92 229.013 506.237L10.3021 383.904Z" fill="#D9D9D9"/>
</g>
<path d="M446.905 110.976L303.102 160.408L262.761 318.816L446.905 110.976Z" fill="#754BC4"/>
<path d="M257.041 2L303.102 160.408L446.905 110.976L257.041 2Z" fill="#584695"/>
<path d="M254.5 3.43701L34.5952 127.828L234.571 227.816L295.238 146.927L254.5 3.43701Z" fill="#9576E0"/>
<path d="M234.571 227.816L34.5952 127.828L228.954 246.914V353.643V357.014L244.863 339.038V236.803L303.102 160.408L257.04 2L254.5 3.43688L295.238 146.926L234.571 227.816Z" fill="#FBFBFD"/>
<path d="M34.5952 127.827V353.643L228.954 246.914L34.5952 127.827Z" fill="#6239A9"/>
<path d="M228.954 353.643V246.914L34.5952 353.643H228.954Z" fill="#3A2174"/>
<path d="M34.5952 367.125L40.2125 370.303L228.954 378.36V357.014V353.644H34.5952V367.125Z" fill="#735EEE"/>
<path d="M40.2124 370.302L230.077 478.347L228.954 401.952V378.359L40.2124 370.302Z" fill="#4344C9"/>
<path d="M244.863 339.038L228.954 357.013V378.359V401.952L245.806 382.853L244.863 339.038Z" fill="#E4E7FC"/>
<path d="M230.077 478.348L245.806 486.212V382.854L228.954 401.952L230.077 478.348Z" fill="#90B1EE"/>
<path d="M474.992 125.581L446.905 110.976L262.762 318.816L244.864 339.038L245.806 382.853L442.412 161.384L474.992 125.581Z" fill="#FEFEFF"/>
<path d="M244.864 236.804V339.038L262.762 318.816L303.102 160.408L244.864 236.804Z" fill="#4C2E8A"/>
<path d="M245.806 486.212L253.67 491.046L295.238 389.594L405.337 307.582L442.412 161.385L245.806 382.854V486.212Z" fill="#376EE3"/>
<path d="M253.67 491.046L478.212 368.474L405.337 321.062L295.238 389.594L253.67 491.046Z" fill="#244099"/>
<path d="M478.212 368.475L480.609 367.125L474.992 362.323L410.955 307.582L442.412 161.385L405.337 307.582L295.238 389.594L405.337 321.063L478.212 368.475Z" fill="#B8D9FD"/>
<path d="M482.856 130.075L474.992 125.581L442.411 161.385L410.955 307.582L474.992 362.323L482.856 130.075Z" fill="#6EACF3"/>
<path d="M480.609 367.124L482.856 130.074L474.992 362.323L480.609 367.124Z" fill="#204B98"/>
</g>
<defs>
<filter id="filter0_f_2053_22" x="-60" y="167.984" width="627.768" height="404.016" filterUnits="userSpaceOnUse" color-interpolation-filters="sRGB">
<feFlood flood-opacity="0" result="BackgroundImageFix"/>
<feBlend mode="normal" in="SourceGraphic" in2="BackgroundImageFix" result="shape"/>
<feGaussianBlur stdDeviation="20" result="effect1_foregroundBlur_2053_22"/>
</filter>
<clipPath id="clip0_2053_22">
<rect width="512" height="512" fill="white"/>
</clipPath>
</defs>
</svg>
